<svg width="15" height="15" viewBox="0 0 15 15" fill="none" xmlns="http://www.w3.org/2000/svg">
<path d="M13.4844 1.34375C14.2812 2.14062 14.3984 3.25 14.3984 4.58594V10.6562C14.3984 11.9922 14.2812 13.1094 13.4844 13.9062C12.6875 14.7031 11.5625 14.8281 10.2266 14.8281H4.15625C2.82812 14.8281 1.70312 14.7031 0.90625 13.9062C0.109375 13.1094 -0.0078125 11.9922 -0.0078125 10.6562V4.57031C-0.0078125 3.25781 0.109375 2.14062 0.90625 1.34375C1.70312 0.546875 2.82812 0.421875 4.14062 0.421875H10.2266C11.5625 0.421875 12.6875 0.546875 13.4844 1.34375ZM1.82031 2.25781C1.35156 2.73438 1.25 3.57031 1.25 4.39844V7.44531H4.0625C3.07812 7 2.38281 6.19531 2.38281 5.21094C2.38281 4.0625 3.21875 3.22656 4.34375 3.22656C5.32031 3.22656 6.20312 3.84375 6.71875 4.85156V1.67969H3.96875C3.14844 1.67969 2.29688 1.78906 1.82031 2.25781ZM13.1406 4.375C13.1406 3.57031 13.0391 2.73438 12.5625 2.26562C12.0938 1.78906 11.25 1.67969 10.4453 1.67969H7.66406V4.85156C8.17969 3.84375 9.0625 3.22656 10.0391 3.22656C11.1641 3.22656 12 4.0625 12 5.21094C12 6.19531 11.3125 7 10.3203 7.44531H13.1406V4.375ZM6.34375 7.3125H6.57812V7.09375C6.57812 5.60938 5.5625 4.32031 4.40625 4.32031C3.84375 4.32031 3.48438 4.6875 3.48438 5.27344C3.48438 6.25781 4.80469 7.3125 6.34375 7.3125ZM8.03906 7.3125C9.58594 7.3125 10.8984 6.25781 10.8984 5.27344C10.8984 4.6875 10.5469 4.32031 9.97656 4.32031C8.82031 4.32031 7.80469 5.60938 7.80469 7.09375V7.3125H8.03906ZM10.4453 13.5703C11.25 13.5703 12.0938 13.4609 12.5625 12.9844C13.0391 12.5156 13.1406 11.6797 13.1406 10.875V8.3125H8.42188C8.875 9.25781 10.3828 10.6641 11.4609 10.7812C11.8672 10.8203 12.0938 11.0703 12.0938 11.4531C12.0938 11.7891 11.8203 12.1094 11.375 12.0469C10.1719 11.8594 8.24219 10.4688 7.72656 8.85156H7.66406V13.5703H10.4453ZM3.94531 13.5703H6.71875V8.85156H6.66406C6.14062 10.4688 4.21875 11.8594 3.00781 12.0469C2.57031 12.1094 2.29688 11.7891 2.29688 11.4531C2.29688 11.0703 2.52344 10.8203 2.92188 10.7812C4.00781 10.6641 5.50781 9.25781 5.96875 8.3125H1.25V10.875C1.25 11.6797 1.35156 12.5156 1.82031 12.9844C2.29688 13.4609 3.14062 13.5703 3.94531 13.5703Z" fill="black"/>
</svg>
